<?xml version="1.0" encoding="utf-8"?>
<!-- Generator: Adobe Illustrator 26.2.1, SVG Export Plug-In . SVG Version: 6.00 Build 0)  -->
<svg version="1.1" xmlns="http://www.w3.org/2000/svg" xmlns:xlink="http://www.w3.org/1999/xlink" x="0px" y="0px"
	 viewBox="0 0 492.71 515.85" style="enable-background:new 0 0 492.71 515.85;" xml:space="preserve">
<style type="text/css">
	.st0{fill:#F8D976;}
	.st1{fill:#010E9D;}
	.st2{fill:#181068;}
	.st3{fill:#30D9C4;}
	.st4{fill:#B79BE5;}
	.st5{fill:#4A55BF;}
	.st6{fill:#C9C9C9;}
	.st7{fill:#C9CEFB;}
	.st8{fill:#4B978C;}
	.st9{fill:#000F9F;}
	.st10{fill:#FF647E;}
	.st11{fill:#E84B4B;}
	.st12{fill:#FFC0CB;}
	.st13{fill:#F0A143;}
	.st14{fill:#93C01F;}
	.st15{opacity:0.75;fill:url(#SVGID_1_);}
	.st16{fill:url(#SVGID_00000149370199800839352100000003903096314042595000_);}
	.st17{fill:#FFFFFF;stroke:#000F9F;stroke-miterlimit:10;}
	.st18{fill:none;stroke:#C9CEFB;stroke-linecap:round;stroke-linejoin:round;stroke-miterlimit:10;}
	.st19{fill:#FFFFFF;stroke:#000F9F;stroke-width:1.2437;stroke-linecap:round;stroke-linejoin:round;stroke-miterlimit:10;}
	.st20{fill:none;stroke:#000F9F;stroke-width:1.2437;stroke-linecap:round;stroke-linejoin:round;stroke-miterlimit:10;}
	.st21{fill:none;stroke:#FFC0CB;stroke-miterlimit:10;}
	.st22{fill:none;stroke:#000F9F;stroke-width:1.2982;stroke-linecap:round;stroke-linejoin:round;stroke-miterlimit:10;}
	.st23{fill:none;stroke:#000F9F;stroke-miterlimit:10;}
	.st24{fill:#FFFFFF;stroke:#000F9F;stroke-width:1.2128;stroke-linecap:round;stroke-linejoin:round;stroke-miterlimit:10;}
	.st25{fill:none;stroke:#000F9F;stroke-linecap:round;stroke-linejoin:round;stroke-miterlimit:10;}
	.st26{fill:#FFFFFF;stroke:#000F9F;stroke-width:1.2128;stroke-miterlimit:10;}
	.st27{fill:none;stroke:#000F9F;stroke-width:1.516;stroke-linecap:round;stroke-linejoin:round;stroke-miterlimit:10;}
	.st28{fill:#E12022;stroke:#E12022;stroke-width:0.0423;stroke-miterlimit:10;}
	.st29{fill:#0B6FB6;stroke:#0B6FB6;stroke-width:0.0423;stroke-miterlimit:10;}
	.st30{fill:#FFFFFF;}
	.st31{fill:none;stroke:#FF647E;stroke-width:8;stroke-miterlimit:10;}
	.st32{fill:#4B978C;stroke:#C9CEFB;stroke-width:2.1603;stroke-linecap:round;stroke-linejoin:round;stroke-miterlimit:10;}
	.st33{fill:#4B978C;stroke:#C9CEFB;stroke-width:1.0801;stroke-linecap:round;stroke-linejoin:round;stroke-miterlimit:10;}
	.st34{fill:#E84B4B;stroke:#C9CEFB;stroke-width:2.1603;stroke-linecap:round;stroke-linejoin:round;stroke-miterlimit:10;}
	.st35{fill:#F0A143;stroke:#C9CEFB;stroke-width:2.1603;stroke-linecap:round;stroke-linejoin:round;stroke-miterlimit:10;}
	.st36{fill:#F0A143;stroke:#C9CEFB;stroke-width:1.0801;stroke-linecap:round;stroke-linejoin:round;stroke-miterlimit:10;}
	.st37{fill:none;stroke:#F8D976;stroke-width:1.0801;stroke-linecap:round;stroke-linejoin:round;stroke-miterlimit:10;}
	.st38{fill:#F8D976;stroke:#C9CEFB;stroke-width:2.1603;stroke-miterlimit:10;}
	.st39{fill:none;stroke:#C9CEFB;stroke-width:1.0801;stroke-miterlimit:10;}
	.st40{display:none;opacity:0.88;}
	.st41{display:inline;}
</style>
<g id="Capa_1">
	<g id="Capa_3">
	</g>
	<g>
		<g>
			<g>
				<path class="st2" d="M256.78,195.66h-35.77c-2.92,0-5.29-2.37-5.29-5.29v-8.04c0-2.92,2.37-5.29,5.29-5.29h35.77
					c2.92,0,5.29,2.37,5.29,5.29v8.04C262.08,193.29,259.71,195.66,256.78,195.66z"/>
				<path class="st2" d="M256.78,210.56h-35.77c-2.92,0-5.29-2.37-5.29-5.29v-8.04c0-2.92,2.37-5.29,5.29-5.29h35.77
					c2.92,0,5.29,2.37,5.29,5.29v8.04C262.08,208.19,259.71,210.56,256.78,210.56z"/>
				<path class="st2" d="M256.78,224.22h-35.77c-2.92,0-5.29-2.37-5.29-5.29v-8.04c0-2.92,2.37-5.29,5.29-5.29h35.77
					c2.92,0,5.29,2.37,5.29,5.29v8.04C262.08,221.85,259.71,224.22,256.78,224.22z"/>
				<path class="st2" d="M256.78,238.85h-35.77c-2.92,0-5.29-2.37-5.29-5.29v-8.04c0-2.92,2.37-5.29,5.29-5.29h35.77
					c2.92,0,5.29,2.37,5.29,5.29v8.04C262.08,236.48,259.71,238.85,256.78,238.85z"/>
			</g>
			<g>
				
					<rect x="352.64" y="259.18" transform="matrix(0.9337 -0.3582 0.3582 0.9337 -104.7715 154.9414)" class="st9" width="26.44" height="202.21"/>
				<g>
					<circle class="st2" cx="318.88" cy="254.32" r="27.78"/>
					<circle class="st7" cx="318.88" cy="254.32" r="9.54"/>
				</g>
			</g>
			<g>
				
					<rect x="108.61" y="258.18" transform="matrix(-0.954 -0.2999 0.2999 -0.954 130.289 738.569)" class="st9" width="26.44" height="202.21"/>
				<g>
					<circle class="st2" cx="157.87" cy="251.77" r="27.78"/>
					<circle class="st7" cx="157.87" cy="251.77" r="9.54"/>
				</g>
				<g>
					<circle class="st2" cx="90.08" cy="463.15" r="24.99"/>
					<circle class="st7" cx="90.08" cy="463.15" r="8.58"/>
				</g>
			</g>
			<g>
				<path class="st2" d="M279.51,382.73h-81.23c-3.8,0-6.88-3.08-6.88-6.88v-13.59c0-3.8,3.08-6.88,6.88-6.88h81.23
					c3.8,0,6.88,3.08,6.88,6.88v13.59C286.4,379.65,283.31,382.73,279.51,382.73z"/>
				<path class="st2" d="M275.32,404.25h-72.85c-3.8,0-6.88-3.08-6.88-6.88v-10.45c0-3.8,3.08-6.88,6.88-6.88h72.85
					c3.8,0,6.88,3.08,6.88,6.88v10.45C282.2,401.17,279.12,404.25,275.32,404.25z"/>
				<path class="st2" d="M270.98,425.48h-64.16c-3.8,0-6.88-3.08-6.88-6.88v-10.45c0-3.8,3.08-6.88,6.88-6.88h64.16
					c3.8,0,6.88,3.08,6.88,6.88v10.45C277.86,422.4,274.78,425.48,270.98,425.48z"/>
				<path class="st2" d="M265.85,445.64h-53.91c-3.8,0-6.88-3.08-6.88-6.88v-10.45c0-3.8,3.08-6.88,6.88-6.88h53.91
					c3.8,0,6.88,3.08,6.88,6.88v10.45C272.74,442.56,269.65,445.64,265.85,445.64z"/>
				<path class="st2" d="M267.77,461.53v-10.45c0-3.8-3.08-6.88-6.88-6.88h-43.98c-3.8,0-6.88,3.08-6.88,6.88v10.45
					c0,1.37,0.4,2.64,1.09,3.71c18.52,0,37.07,0,55.56,0C267.36,464.17,267.77,462.89,267.77,461.53z"/>
				<path class="st2" d="M251.5,460.03h-25.2c-3.22,0-5.92,2.22-6.67,5.21c12.85,0,25.7,0,38.54,0
					C257.42,462.25,254.72,460.03,251.5,460.03z"/>
			</g>
			<path class="st5" d="M308.98,360.66H168.81c-4.24,0-7.68-3.44-7.68-7.68V237.22c0-4.24,3.44-7.68,7.68-7.68h140.17
				c4.24,0,7.68,3.44,7.68,7.68v115.76C316.66,357.22,313.22,360.66,308.98,360.66z"/>
			<path class="st5" d="M283.37,186.33h-88.95c-4.24,0-7.68-3.44-7.68-7.68V11.77c0-4.24,3.44-7.68,7.68-7.68h88.95
				c4.24,0,7.68,3.44,7.68,7.68v166.88C291.05,182.89,287.61,186.33,283.37,186.33z"/>
		</g>
		<g>
			<g>
				<path class="st32" d="M134.63,260.46c-5.32,0.08-6.44,2.24-7.77,8.85c-1.32,6.61-7.03,3.36-3.34,10.01s6.29,4.31,5.55,8.89
					s-4.26-0.63-5.74,6.36c-1.48,6.99,4.31,15.35,2.31,17.09c-2,1.74-6.54,4.22,2.11,13.44c8.65,9.23,3.64,16.93,4.25,22.75
					c0.61,5.82,3.35-2.5,5.54,9.87c2.18,12.37-5.25-2.45,1.09,16.72c6.35,19.17,17.13,14.84,16.79,25.01
					c-0.34,10.18-14.27,2.38-1.42,14.24c12.85,11.85,16.15,16.34,16.15,16.34l2.63,16.44l6.87-4.71l-4.94-17.34
					c0,0,8.73,3.31,7.21-14.72s-6.47-21.98-6.72-30.89s6.75-12.48,5.91-23.93s-4.34-13.75-4.15-21.02
					c0.19-7.27,2.4-11.95,3.86-16.67s-3.57-21.43-3.57-21.43s4.22-8.21,1.78-12.89c-2.44-4.68-7.23-2.35-8.52-6.62
					c-1.29-4.27,1.94-6.29,0.7-9.84c-1.24-3.55-4.96-4.17-8.19-4.79s-1.1-6.68-4.45-8.92c-3.35-2.24-4.35,6.84-7.4,5.59
					s-3.61-9.01-7.91-8.88C138.97,249.55,137.36,260.42,134.63,260.46z"/>
				<path class="st33" d="M152.15,273.32c0.63,8.81,9.67,75.67,13.82,92.81c4.15,17.14,16.09,69.88,13.67,75.63"/>
				<path class="st33" d="M175.92,439.53c-0.28-7.67-19.92-119.53-24.31-132.3c-4.39-12.77-5.69-37.71-5.92-41.32"/>
				<path class="st32" d="M111.48,320.36c-6.32-2.13-8.74-4.51-7.06-11.51c1.68-7-0.38-5.42-1.54-11.5
					c-1.16-6.09-5.22-7.8,0.17-9.52s4.94-7.79,5.55-11.67s8.47-12.01,10.34,1.28c1.87,13.3,7.32,18.38,10.88,22.14
					c3.56,3.76-3.93,11.14,1.11,16.97c5.04,5.84,12.98,4.23,12.72,10.41c-0.27,6.18-5.1,8.01,0.8,11.58
					c5.9,3.57,12.02-1.18,10.4,7.81c-1.62,8.99-6.98,9.14-1.9,15.07c5.08,5.94,12.64,3.42,10,9.34c-2.63,5.91-3.6,8.12-3.51,13.91
					c0.1,5.8,10.97,12.4,9.05,19.72c-1.92,7.32-9.11,8.87-4.9,12.12c4.21,3.25,10.55,2.61,11.13,7.89s-3,10.99,0.14,18.25
					c3.14,7.26-8.61-11.16-8.99-11.74c-0.37-0.58-31.55-34.25-35.64-49.13c-4.1-14.88,11.16-26.76-4.76-37.32
					c-15.92-10.57-21.82-14.17-22.62-15.93C102.02,326.78,111.48,320.36,111.48,320.36z"/>
				<path class="st32" d="M187.06,255.71c-12.43,1.31-12.34,5.04-11.75,10.44s-3.27,2.75-4.8,10.1c-1.53,7.35,1.42,11.51,1.18,18.06
					c-0.24,6.54-9.16-3.38-4.59,13.54c4.57,16.92,10.26,6.4,4.57,16.92c-5.69,10.53-6.47,19.28-7.03,20.95
					c-0.55,1.67,0.11,6.7,2.49,12.35c2.38,5.65,0.03,15.26-0.41,24.34c-0.43,9.08,8.28,13.95,5.62,22.1
					c-2.66,8.15-6.66,0.33-3.42,12.87c3.24,12.53-0.32,16.53,0.43,18.93c0.75,2.4-1.78,3.31,2.25,8.81c4.03,5.5,10.9,4.63,10.9,4.63
					l-4.69-19.6c0,0,12.11-5.48,13.88-14.25s-3.39-26.2-1.4-31.77c1.98-5.57,18.76-72.27,21.07-78.06
					c2.31-5.79,1.12-11.15-2.64-13.45s-0.82-2.12-0.92-9.55c-0.11-7.43-0.71-4.12-3.59-8.29c-2.88-4.16,3.47-3.13,2.49-8.5
					c-0.98-5.38-3.04-1.25-7.77-4.21c-4.73-2.96-1.22-5.72-5.44-8.71S189.21,255.48,187.06,255.71z"/>
				<path class="st32" d="M140.22,438.22c-6.71,0.97-12.23,5.91-12.96,1.38c-0.73-4.54-0.98-7.16-3.44-7.26
					c-2.46-0.1-9.57,8.72-11.22,2.06c-1.65-6.66,7.51-6.9,1.71-10.14c-5.81-3.25-11.11,7.98-16.34,5.06
					c-5.22-2.92-1.69-10.41-0.85-13c0.84-2.59-10.92-2.91-14.74-9.92c-3.81-7,1.73-14.62,3.19-17.98c1.46-3.36-3.88-3.18-6.16-12.19
					s2.67-5.19,4.69-10.3c2.01-5.11-18.12-5.24-12.1-20.87s7.71-10.3,10.32-11.55c2.6-1.26-10.82-16.66,0.1-19.03
					c10.92-2.36,10.74,15.42,14.29,13.37c3.56-2.05,6.35-20.18,14.24-15.34s4.47,14.12,6.59,15.8s5.8-8.72,10.19-3.2
					c4.39,5.52,2.07,15.86,4.13,18.95c2.06,3.09,6.11-0.76,12.39,3c6.28,3.76-0.79,18.73,1.5,22.93s9.76,0.53,14.53,6.7
					s0.09,6.48,0.94,14.41c0.85,7.92,7.09,0.63,7.08,10.78s-3.82,9.98-1.66,15.65s7.05,6.83,8.62,12.17s-3.39,7.34,0.64,9.82
					c4.03,2.49,4.01,1.31,8.35,6.19s3.99,9.67,0.66,10.04c-3.33,0.37-11.27-8.09-19.82-10.72s-4.99,1.21-14.21,0.93
					C141.66,445.68,143.25,437.79,140.22,438.22z"/>
				<path class="st32" d="M206.24,416.26c6.55-1.83,13.44,0.49,12.46-3.99c-0.98-4.48-1.71-7.01,0.52-8.1
					c2.23-1.09,12.02,4.17,11.11-2.65c-0.91-6.82-9.45-3.32-5.28-8.67c4.18-5.35,10.33,3.04,14.08-1.78s-2.38-12.34-4.1-14.39
					s9.02-7.12,9.98-15.13s-6.93-12.79-9.5-15.3c-2.57-2.51,5.4-2.65,4.2-11.89c-1.19-9.24-4.36-3.71-8.08-7.6
					c-3.72-3.9,14.81-12.19,3.55-24.17c-11.26-11.98-6.96-4.57-9.82-4.68c-2.86-0.11,3.9-19.77-7.04-17.52
					c-10.94,2.25-4.28,18.59-8.31,18.14s-13.23-16.05-18.74-8.38c-5.52,7.66,1.03,14.85-0.32,17.26c-1.35,2.41-8.54-5.69-10.57,1.18
					c-2.03,6.87,3.88,15.48,3.1,19.17c-0.78,3.69-5.92,1.78-10.35,7.8c-4.43,6.02,7.57,16.96,6.99,21.77
					c-0.58,4.81-8.82,4.45-10.96,12.08c-2.14,7.64,2.29,6.02,4.39,13.68c2.1,7.66-6.31,3.45-2.6,12.82
					c3.71,9.37,7.17,7.66,7.25,13.77c0.07,6.11-4.01,9.17-3.52,14.74s5.8,5.4,2.99,9.33c-2.81,3.93-3.22,2.83-5.44,9.1
					c-2.22,6.27-0.15,10.54,3.06,9.53c3.21-1.01,7.45-12.04,14.38-17.94s5.04-0.91,13.46-4.91
					C211.56,425.52,203.29,417.08,206.24,416.26z"/>
				<path class="st33" d="M218.46,322.08c-1.34,5.16-11.19,34.09-12.02,54.68c-0.56,13.93-26.91,63.01-31.13,75.62"/>
				<path class="st33" d="M171.23,446.57c5.38-7.48,25.88-48.74,28.53-74.92c2.65-26.18,10.25-58.32,10.16-60.91"/>
				<path class="st33" d="M92.83,350.41c6.21,12.83,20.95,45.23,26.35,52.5c5.4,7.26,55.3,33.65,62.76,51.88"/>
				<path class="st33" d="M187.7,455.8c-6.35-10.93-17-22.53-32.33-36.4s-25.51-10.48-33.98-27.24
					c-8.47-16.77-26.18-46.44-30.7-59.2"/>
			</g>
			<g>
				<path class="st34" d="M209.41,399.75c-19.17-0.45-28.76,1.04-27.6,17.62s7.39,23.38,29.11,22.1
					c21.72-1.28,34.75-14.93,32.47-21.35C241.11,411.69,245.06,388.5,209.41,399.75z"/>
				<path class="st33" d="M208.31,396.29c-9.53-4.5-20.23,1.47-21.87,3.02c15.39-0.62,13.35,1.16,14.57,1.18
					c-8.41,3.43-8.43,10.18-8.28,11.88c4-4.21,10.34-9.37,13.46-10.13c4.78,1.79,13.19,4.98,13.92,7.73
					c1.91-8.63-1.72-10.4-2.51-10.7c10.27,2.72,16.39,4.64,17.25,6.16c-0.9-3.23-3.27-8.44-4.48-8.47c7.06-0.62,5.96,1.13,7.34,1.9
					c-2.65-5.71-14.72-6.95-25.57-2.52C209.71,397.35,209.63,396.38,208.31,396.29z"/>
			</g>
			<g>
				<path class="st35" d="M277.04,349.72c-16.19-1.4-26.33,7.09-27.87,20.63c-1.54,13.54,6.67,26.15,23.71,27.46
					c17.04,1.32,28.43-9.43,28.22-21.52C300.89,364.2,296.11,351.36,277.04,349.72z"/>
				<path class="st36" d="M262.05,357.53c1.34-0.14,4.56,0.56,4.6,1.29c1.05-1.79,4.25-2.97,6.34-0.73c1.26-1.1,2.27-1.79,4.38-1.43
					"/>
			</g>
			<g>
				<path class="st34" d="M261.26,383.26c19.17-0.45,28.76,1.04,27.6,17.62s-7.39,23.38-29.11,22.1s-34.75-14.93-32.47-21.35
					C229.55,395.21,225.6,372.02,261.26,383.26z"/>
				<path class="st33" d="M262.36,379.8c9.53-4.5,20.23,1.47,21.87,3.02c-15.39-0.62-13.35,1.16-14.57,1.18
					c8.41,3.43,8.43,10.18,8.28,11.88c-4-4.21-10.34-9.37-13.46-10.13c-4.78,1.79-13.19,4.98-13.92,7.73
					c-1.91-8.63,1.72-10.4,2.51-10.7c-10.27,2.72-16.39,4.64-17.25,6.16c0.9-3.23,3.27-8.44,4.48-8.47
					c-7.06-0.62-5.96,1.13-7.34,1.9c2.65-5.71,14.72-6.95,25.57-2.52C260.96,380.86,261.03,379.9,262.36,379.8z"/>
			</g>
			<g>
				<path class="st8" d="M264.15,429.03c15.83-22.5,60.67-67.09,77.69-97.08c10.56-18.61,44.22-14.2,33.45,9.13
					c-17.25,37.38-61.4,95.72-78.64,103.29C279.42,451.94,249.88,449.33,264.15,429.03z"/>
				<path class="st37" d="M365.43,338.07c-3.35,11.68-25.3,53-33.02,60.22"/>
				<path class="st37" d="M337.28,377.42c-8.54,12.01-18.91,36.12-30.23,41.01"/>
			</g>
			<g>
				<path class="st35" d="M315.34,381.43c-15.33-5.37-27.27,0.33-32.12,13.06c-4.86,12.73-0.04,26.99,16.14,32.49
					c16.18,5.51,29.88-2.07,32.69-13.83C334.85,401.39,333.41,387.76,315.34,381.43z"/>
				<path class="st36" d="M306.75,385.47c1.33,0.2,2.2,1.63,2.06,2.35c2.43-0.86,5.67-1.04,7.14,1.66c3.5-0.68,2.64-2.04,5.86-1.04"
					/>
			</g>
			<g>
				<path class="st34" d="M275.74,414.56c19.16-0.75,28.77,0.6,27.87,17.2c-0.9,16.59-7.03,23.49-28.77,22.54
					c-21.73-0.95-34.97-14.39-32.79-20.85C244.22,426.99,239.92,403.86,275.74,414.56z"/>
				<path class="st33" d="M276.79,411.08c9.46-4.65,20.25,1.16,21.92,2.68c-15.4-0.38-13.33,1.37-14.55,1.4
					c8.46,3.3,8.58,10.05,8.46,11.76c-4.07-4.15-10.48-9.21-13.62-9.92c-4.75,1.86-13.11,5.18-13.8,7.95
					c-2.04-8.6,1.56-10.42,2.34-10.73c-10.23,2.88-16.31,4.89-17.16,6.42c0.85-3.25,3.14-8.49,4.35-8.53
					c-7.07-0.51-5.94,1.22-7.31,2.01c2.56-5.75,14.62-7.18,25.53-2.91C275.41,412.17,275.47,411.2,276.79,411.08z"/>
			</g>
			<g>
				<path class="st38" d="M369.86,383.94c-19.66-6.59-26.8,10.09-30.29,19.62c-2.9,7.92-15.8,15.38-31.72,21.95
					s-15.66,26.4-1.55,36.55c14.11,10.15,42.78,12.28,48.85,1.17c6.06-11.11,6.8-25.83,9.78-33.79
					C367.92,421.47,389.52,390.53,369.86,383.94z"/>
				<path class="st36" d="M366.29,387.27c0.55,1.34,1.91,1.9,3.65,1.67c1.97-1.12,6.99-11.53,8.8-13.28
					c-3.84-0.79-4.26-0.65-4.26-0.65S368.38,386.22,366.29,387.27z"/>
				<path class="st39" d="M361.12,417.58c-0.3,1.04-1.98,1.48-2.55,1.31s0.83-0.85,1.13-1.9c0.3-1.04,1.08-1.91,1.65-1.75
					S361.43,416.53,361.12,417.58z"/>
				<path class="st39" d="M357.16,425.71c-0.35,1.2-2.14,2.05-3.34,1.7c-1.2-0.35-1.34-1.76-0.99-2.95c0.35-1.2,1.95-1.78,3.15-1.43
					C357.17,423.37,357.5,424.52,357.16,425.71z"/>
			</g>
		</g>
		<g>
			
				<rect x="290.93" y="382.09" transform="matrix(-0.0616 -0.9981 0.9981 -0.0616 -141.1304 797.3653)" class="st9" width="26.64" height="165.88"/>
			<g>
				
					<rect x="166.88" y="484.18" transform="matrix(-0.8697 0.4935 -0.4935 -0.8697 610.4869 820.8655)" class="st9" width="60.05" height="13.65"/>
				
					<rect x="156.41" y="458.2" transform="matrix(-0.9981 0.0616 -0.0616 -0.9981 401.1884 917.67)" class="st9" width="60.05" height="13.65"/>
				<g>
					<circle class="st2" cx="226.95" cy="468.41" r="20.7"/>
					<circle class="st7" cx="226.95" cy="468.41" r="7.11"/>
				</g>
			</g>
			<g>
				<circle class="st2" cx="402.63" cy="455.76" r="24.99"/>
				<circle class="st7" cx="402.63" cy="455.76" r="8.58"/>
			</g>
		</g>
		
			<rect x="174.22" y="356.97" transform="matrix(-0.1883 -0.9821 0.9821 -0.1883 -209.1984 706.9075)" class="st9" width="26.64" height="165.88"/>
		<g>
			
				<rect x="271.07" y="425.06" transform="matrix(0.998 0.0637 -0.0637 0.998 28.1118 -18.2963)" class="st9" width="60.05" height="13.65"/>
			
				<rect x="267.56" y="394.44" transform="matrix(0.8887 -0.4585 0.4585 0.8887 -150.8465 181.0816)" class="st9" width="60.05" height="13.65"/>
			<g>
				<circle class="st2" cx="263.26" cy="423.98" r="20.7"/>
				<circle class="st7" cx="263.26" cy="423.98" r="7.11"/>
			</g>
		</g>
	</g>
</g>
<g id="Capa_2" class="st40">
</g>
</svg>
