<?xml version="1.0" encoding="utf-8"?>
<!-- Generator: Adobe Illustrator 26.2.1, SVG Export Plug-In . SVG Version: 6.00 Build 0)  -->
<svg version="1.1" xmlns="http://www.w3.org/2000/svg" xmlns:xlink="http://www.w3.org/1999/xlink" x="0px" y="0px"
	 viewBox="0 0 1012.4 509.85" style="enable-background:new 0 0 1012.4 509.85;" xml:space="preserve">
<style type="text/css">
	.st0{fill:#FFC0CB;}
	.st1{fill:#FFFFFF;}
	.st2{fill:#B79BE5;}
	.st3{fill:#C9CEFB;}
	.st4{fill:#000F9F;}
	.st5{fill:#181068;}
	.st6{fill:#4A55BF;}
	.st7{fill:#010E9D;}
	.st8{fill:#30D9C4;}
	.st9{fill:#C9C9C9;}
	.st10{fill:#4B978C;}
	.st11{fill:#FF647E;}
	.st12{fill:#F8D976;}
	.st13{fill:#E84B4B;}
	.st14{fill:#F0A143;}
	.st15{opacity:0.75;fill:url(#SVGID_1_);}
	.st16{fill:url(#SVGID_00000149342972648055391030000001425790051768990618_);}
	.st17{fill:none;stroke:#FF647E;stroke-width:8;stroke-miterlimit:10;}
	.st18{fill:#B79BE5;stroke:#4A55BF;stroke-width:3.716;stroke-miterlimit:10;}
	.st19{fill:#FFFFFF;stroke:#4A55BF;stroke-width:3.716;stroke-miterlimit:10;}
	.st20{fill:none;stroke:#4A55BF;stroke-width:3.716;stroke-miterlimit:10;}
	.st21{fill:#FFFFFF;stroke:#000F9F;stroke-miterlimit:10;}
	.st22{fill:none;stroke:#C9CEFB;stroke-linecap:round;stroke-linejoin:round;stroke-miterlimit:10;}
	.st23{fill:#FFFFFF;stroke:#000F9F;stroke-width:1.2437;stroke-linecap:round;stroke-linejoin:round;stroke-miterlimit:10;}
	.st24{fill:none;stroke:#000F9F;stroke-width:1.2437;stroke-linecap:round;stroke-linejoin:round;stroke-miterlimit:10;}
	.st25{display:none;}
	.st26{display:inline;fill:none;stroke:#FFC0CB;stroke-miterlimit:10;}
	.st27{fill:none;stroke:#000F9F;stroke-width:1.2982;stroke-linecap:round;stroke-linejoin:round;stroke-miterlimit:10;}
	.st28{fill:none;stroke:#000F9F;stroke-miterlimit:10;}
	.st29{fill:#FFFFFF;stroke:#000F9F;stroke-width:1.2128;stroke-linecap:round;stroke-linejoin:round;stroke-miterlimit:10;}
	.st30{fill:none;stroke:#000F9F;stroke-linecap:round;stroke-linejoin:round;stroke-miterlimit:10;}
	.st31{fill:#FFFFFF;stroke:#000F9F;stroke-width:1.2128;stroke-miterlimit:10;}
	.st32{fill:none;stroke:#000F9F;stroke-width:1.516;stroke-linecap:round;stroke-linejoin:round;stroke-miterlimit:10;}
	.st33{fill:#FFFFFF;stroke:#000F9F;stroke-width:2;stroke-linecap:round;stroke-linejoin:round;stroke-miterlimit:10;}
	.st34{clip-path:url(#SVGID_00000132783264152956785130000016607737866876709272_);}
	.st35{display:inline;fill:#FFC0CB;}
	.st36{fill:none;stroke:#181068;stroke-width:2.6818;stroke-miterlimit:10;}
	.st37{fill:none;stroke:#F8D976;stroke-width:8.3532;stroke-miterlimit:10;}
	.st38{fill:none;stroke:#000F9F;stroke-width:6.9391;stroke-miterlimit:10;}
	.st39{fill:none;stroke:#E84B4B;stroke-width:8.3532;stroke-miterlimit:10;}
	.st40{fill:none;stroke:#000F9F;stroke-width:5.071;stroke-miterlimit:10;}
	.st41{fill:none;stroke:#000F9F;stroke-width:5.071;stroke-miterlimit:10;stroke-dasharray:7.6841,4.3909;}
	.st42{fill:#000F9F;stroke:#C9CEFB;stroke-width:2;stroke-miterlimit:10;}
	.st43{fill:#B79BE5;stroke:#000F9F;stroke-width:2.8626;stroke-miterlimit:10;}
	.st44{fill:#FF647E;stroke:#000F9F;stroke-width:2;stroke-miterlimit:10;}
	.st45{fill:#FFC0CB;stroke:#FFFFFF;stroke-width:2;stroke-miterlimit:10;}
	.st46{fill:#B79BE5;stroke:#C9CEFB;stroke-miterlimit:10;}
	.st47{fill:#B79BE5;stroke:#C9CEFB;stroke-width:2;stroke-miterlimit:10;}
	.st48{fill:#B79BE5;stroke:#000F9F;stroke-width:2;stroke-miterlimit:10;}
	.st49{fill:#B79BE5;stroke:#000F9F;stroke-width:1.8503;stroke-miterlimit:10;}
	.st50{fill:#4A55BF;stroke:#000F9F;stroke-miterlimit:10;}
	.st51{fill:#C9CEFB;stroke:#000F9F;stroke-width:2;stroke-miterlimit:10;}
	.st52{fill:#FFFFFF;stroke:#000F9F;stroke-width:1.2119;stroke-linecap:round;stroke-linejoin:round;stroke-miterlimit:10;}
	.st53{fill:#FFFFFF;stroke:#000F9F;stroke-width:2;stroke-miterlimit:10;}
	.st54{fill:none;stroke:#C9CEFB;stroke-width:0.9588;stroke-linecap:round;stroke-linejoin:round;stroke-miterlimit:10;}
	.st55{fill:none;stroke:#000F9F;stroke-width:1.2119;stroke-linecap:round;stroke-linejoin:round;stroke-miterlimit:10;}
	.st56{fill:#FFFFFF;stroke:#000F9F;stroke-width:1.4649;stroke-miterlimit:10;}
	.st57{fill:none;stroke:#000F9F;stroke-width:2;stroke-linecap:round;stroke-linejoin:round;stroke-miterlimit:10;}
	.st58{fill:none;stroke:#000F9F;stroke-width:1.2878;stroke-linecap:round;stroke-linejoin:round;stroke-miterlimit:10;}
	.st59{display:none;opacity:0.88;}
	.st60{display:inline;}
</style>
<g id="Capa_1">
	<g>
		<g>
			<g>
				
					<rect x="-164.87" y="236.87" transform="matrix(-1.836970e-16 1 -1 -1.836970e-16 307.5139 204.7923)" class="st0" width="432.47" height="38.56"/>
				<path class="st1" d="M71.64,473.39H31.08V38.92h40.56V473.39z M33.08,471.39h36.56V40.92H33.08V471.39z"/>
			</g>
			<g>
				<path class="st2" d="M208.02,136.9H84.36c-4.57,0-8.27-3.7-8.27-8.27V92.78c0-4.57,3.7-8.27,8.27-8.27h123.65
					c4.57,0,8.27,3.7,8.27,8.27v35.84C216.28,133.19,212.58,136.9,208.02,136.9z"/>
				<path class="st3" d="M208.02,137.4H84.36c-4.83,0-8.77-3.93-8.77-8.77V92.78c0-4.83,3.93-8.77,8.77-8.77h123.65
					c4.83,0,8.77,3.93,8.77,8.77v35.84C216.78,133.46,212.85,137.4,208.02,137.4z M84.36,85.01c-4.28,0-7.77,3.48-7.77,7.77v35.84
					c0,4.28,3.48,7.77,7.77,7.77h123.65c4.28,0,7.77-3.48,7.77-7.77V92.78c0-4.28-3.48-7.77-7.77-7.77H84.36z"/>
			</g>
			<g>
				<rect x="32.08" y="39.92" class="st0" width="922.78" height="38.56"/>
				<path class="st1" d="M955.86,79.48H31.08V38.92h924.78V79.48z M33.08,77.48h920.78V40.92H33.08V77.48z"/>
			</g>
			<g>
				<path class="st2" d="M208.02,192.95H84.36c-4.57,0-8.27-3.7-8.27-8.27v-35.84c0-4.57,3.7-8.27,8.27-8.27h123.65
					c4.57,0,8.27,3.7,8.27,8.27v35.84C216.28,189.25,212.58,192.95,208.02,192.95z"/>
				<path class="st3" d="M208.02,193.46H84.36c-4.83,0-8.77-3.93-8.77-8.77v-35.84c0-4.83,3.93-8.77,8.77-8.77h123.65
					c4.83,0,8.77,3.93,8.77,8.77v35.84C216.78,189.52,212.85,193.46,208.02,193.46z M84.36,141.07c-4.28,0-7.77,3.48-7.77,7.77
					v35.84c0,4.28,3.48,7.77,7.77,7.77h123.65c4.28,0,7.77-3.48,7.77-7.77v-35.84c0-4.28-3.48-7.77-7.77-7.77H84.36z"/>
			</g>
			<g>
				<path class="st2" d="M208.02,249.01H84.36c-4.57,0-8.27-3.7-8.27-8.27V204.9c0-4.57,3.7-8.27,8.27-8.27h123.65
					c4.57,0,8.27,3.7,8.27,8.27v35.84C216.28,245.31,212.58,249.01,208.02,249.01z"/>
				<path class="st3" d="M208.02,249.51H84.36c-4.83,0-8.77-3.93-8.77-8.77V204.9c0-4.83,3.93-8.77,8.77-8.77h123.65
					c4.83,0,8.77,3.93,8.77,8.77v35.84C216.78,245.58,212.85,249.51,208.02,249.51z M84.36,197.13c-4.28,0-7.77,3.48-7.77,7.77
					v35.84c0,4.28,3.48,7.77,7.77,7.77h123.65c4.28,0,7.77-3.48,7.77-7.77V204.9c0-4.28-3.48-7.77-7.77-7.77H84.36z"/>
			</g>
			<g>
				<path class="st2" d="M208.02,305.07H84.36c-4.57,0-8.27-3.7-8.27-8.27v-35.84c0-4.57,3.7-8.27,8.27-8.27h123.65
					c4.57,0,8.27,3.7,8.27,8.27v35.84C216.28,301.37,212.58,305.07,208.02,305.07z"/>
				<path class="st3" d="M208.02,305.57H84.36c-4.83,0-8.77-3.93-8.77-8.77v-35.84c0-4.83,3.93-8.77,8.77-8.77h123.65
					c4.83,0,8.77,3.93,8.77,8.77v35.84C216.78,301.64,212.85,305.57,208.02,305.57z M84.36,253.19c-4.28,0-7.77,3.48-7.77,7.77
					v35.84c0,4.28,3.48,7.77,7.77,7.77h123.65c4.28,0,7.77-3.48,7.77-7.77v-35.84c0-4.28-3.48-7.77-7.77-7.77H84.36z"/>
			</g>
			<g>
				<path class="st2" d="M208.02,361.13H84.36c-4.57,0-8.27-3.7-8.27-8.27v-35.84c0-4.57,3.7-8.27,8.27-8.27h123.65
					c4.57,0,8.27,3.7,8.27,8.27v35.84C216.28,357.43,212.58,361.13,208.02,361.13z"/>
				<path class="st3" d="M208.02,361.63H84.36c-4.83,0-8.77-3.93-8.77-8.77v-35.85c0-4.83,3.93-8.77,8.77-8.77h123.65
					c4.83,0,8.77,3.93,8.77,8.77v35.85C216.78,357.7,212.85,361.63,208.02,361.63z M84.36,309.25c-4.28,0-7.77,3.48-7.77,7.77v35.85
					c0,4.28,3.48,7.77,7.77,7.77h123.65c4.28,0,7.77-3.48,7.77-7.77v-35.85c0-4.28-3.48-7.77-7.77-7.77H84.36z"/>
			</g>
			<g>
				<path class="st2" d="M208.02,417.19H84.36c-4.57,0-8.27-3.7-8.27-8.27v-35.84c0-4.57,3.7-8.27,8.27-8.27h123.65
					c4.57,0,8.27,3.7,8.27,8.27v35.84C216.28,413.49,212.58,417.19,208.02,417.19z"/>
				<path class="st3" d="M208.02,417.69H84.36c-4.83,0-8.77-3.93-8.77-8.77v-35.84c0-4.83,3.93-8.77,8.77-8.77h123.65
					c4.83,0,8.77,3.93,8.77,8.77v35.84C216.78,413.76,212.85,417.69,208.02,417.69z M84.36,365.31c-4.28,0-7.77,3.49-7.77,7.77
					v35.84c0,4.28,3.48,7.77,7.77,7.77h123.65c4.28,0,7.77-3.49,7.77-7.77v-35.84c0-4.28-3.48-7.77-7.77-7.77H84.36z"/>
			</g>
			<g>
				<path class="st2" d="M355.23,136.9H231.58c-4.57,0-8.27-3.7-8.27-8.27V92.78c0-4.57,3.7-8.27,8.27-8.27h123.65
					c4.57,0,8.27,3.7,8.27,8.27v35.84C363.5,133.19,359.79,136.9,355.23,136.9z"/>
				<path class="st3" d="M355.23,137.4H231.58c-4.83,0-8.77-3.93-8.77-8.77V92.78c0-4.83,3.93-8.77,8.77-8.77h123.65
					c4.83,0,8.77,3.93,8.77,8.77v35.84C364,133.46,360.06,137.4,355.23,137.4z M231.58,85.01c-4.28,0-7.77,3.48-7.77,7.77v35.84
					c0,4.28,3.48,7.77,7.77,7.77h123.65c4.28,0,7.77-3.48,7.77-7.77V92.78c0-4.28-3.48-7.77-7.77-7.77H231.58z"/>
			</g>
			<g>
				<path class="st2" d="M355.23,192.95H231.58c-4.57,0-8.27-3.7-8.27-8.27v-35.84c0-4.57,3.7-8.27,8.27-8.27h123.65
					c4.57,0,8.27,3.7,8.27,8.27v35.84C363.5,189.25,359.79,192.95,355.23,192.95z"/>
				<path class="st3" d="M355.23,193.46H231.58c-4.83,0-8.77-3.93-8.77-8.77v-35.84c0-4.83,3.93-8.77,8.77-8.77h123.65
					c4.83,0,8.77,3.93,8.77,8.77v35.84C364,189.52,360.06,193.46,355.23,193.46z M231.58,141.07c-4.28,0-7.77,3.48-7.77,7.77v35.84
					c0,4.28,3.48,7.77,7.77,7.77h123.65c4.28,0,7.77-3.48,7.77-7.77v-35.84c0-4.28-3.48-7.77-7.77-7.77H231.58z"/>
			</g>
			<g>
				<path class="st2" d="M355.23,249.01H231.58c-4.57,0-8.27-3.7-8.27-8.27V204.9c0-4.57,3.7-8.27,8.27-8.27h123.65
					c4.57,0,8.27,3.7,8.27,8.27v35.84C363.5,245.31,359.79,249.01,355.23,249.01z"/>
				<path class="st3" d="M355.23,249.51H231.58c-4.83,0-8.77-3.93-8.77-8.77V204.9c0-4.83,3.93-8.77,8.77-8.77h123.65
					c4.83,0,8.77,3.93,8.77,8.77v35.84C364,245.58,360.06,249.51,355.23,249.51z M231.58,197.13c-4.28,0-7.77,3.48-7.77,7.77v35.84
					c0,4.28,3.48,7.77,7.77,7.77h123.65c4.28,0,7.77-3.48,7.77-7.77V204.9c0-4.28-3.48-7.77-7.77-7.77H231.58z"/>
			</g>
			<g>
				<path class="st2" d="M355.23,305.07H231.58c-4.57,0-8.27-3.7-8.27-8.27v-35.84c0-4.57,3.7-8.27,8.27-8.27h123.65
					c4.57,0,8.27,3.7,8.27,8.27v35.84C363.5,301.37,359.79,305.07,355.23,305.07z"/>
				<path class="st3" d="M355.23,305.57H231.58c-4.83,0-8.77-3.93-8.77-8.77v-35.84c0-4.83,3.93-8.77,8.77-8.77h123.65
					c4.83,0,8.77,3.93,8.77,8.77v35.84C364,301.64,360.06,305.57,355.23,305.57z M231.58,253.19c-4.28,0-7.77,3.48-7.77,7.77v35.84
					c0,4.28,3.48,7.77,7.77,7.77h123.65c4.28,0,7.77-3.48,7.77-7.77v-35.84c0-4.28-3.48-7.77-7.77-7.77H231.58z"/>
			</g>
			<g>
				<path class="st2" d="M355.23,361.13H231.58c-4.57,0-8.27-3.7-8.27-8.27v-35.84c0-4.57,3.7-8.27,8.27-8.27h123.65
					c4.57,0,8.27,3.7,8.27,8.27v35.84C363.5,357.43,359.79,361.13,355.23,361.13z"/>
				<path class="st3" d="M355.23,361.63H231.58c-4.83,0-8.77-3.93-8.77-8.77v-35.85c0-4.83,3.93-8.77,8.77-8.77h123.65
					c4.83,0,8.77,3.93,8.77,8.77v35.85C364,357.7,360.06,361.63,355.23,361.63z M231.58,309.25c-4.28,0-7.77,3.48-7.77,7.77v35.85
					c0,4.28,3.48,7.77,7.77,7.77h123.65c4.28,0,7.77-3.48,7.77-7.77v-35.85c0-4.28-3.48-7.77-7.77-7.77H231.58z"/>
			</g>
			<g>
				<path class="st2" d="M355.23,417.19H231.58c-4.57,0-8.27-3.7-8.27-8.27v-35.84c0-4.57,3.7-8.27,8.27-8.27h123.65
					c4.57,0,8.27,3.7,8.27,8.27v35.84C363.5,413.49,359.79,417.19,355.23,417.19z"/>
				<path class="st3" d="M355.23,417.69H231.58c-4.83,0-8.77-3.93-8.77-8.77v-35.84c0-4.83,3.93-8.77,8.77-8.77h123.65
					c4.83,0,8.77,3.93,8.77,8.77v35.84C364,413.76,360.06,417.69,355.23,417.69z M231.58,365.31c-4.28,0-7.77,3.49-7.77,7.77v35.84
					c0,4.28,3.48,7.77,7.77,7.77h123.65c4.28,0,7.77-3.49,7.77-7.77v-35.84c0-4.28-3.48-7.77-7.77-7.77H231.58z"/>
			</g>
			<g>
				<path class="st2" d="M502.44,136.9H378.79c-4.57,0-8.27-3.7-8.27-8.27V92.78c0-4.57,3.7-8.27,8.27-8.27h123.65
					c4.57,0,8.27,3.7,8.27,8.27v35.84C510.71,133.19,507.01,136.9,502.44,136.9z"/>
				<path class="st3" d="M502.44,137.4H378.79c-4.83,0-8.77-3.93-8.77-8.77V92.78c0-4.83,3.93-8.77,8.77-8.77h123.65
					c4.83,0,8.77,3.93,8.77,8.77v35.84C511.21,133.46,507.27,137.4,502.44,137.4z M378.79,85.01c-4.28,0-7.77,3.48-7.77,7.77v35.84
					c0,4.28,3.48,7.77,7.77,7.77h123.65c4.28,0,7.77-3.48,7.77-7.77V92.78c0-4.28-3.48-7.77-7.77-7.77H378.79z"/>
			</g>
			<g>
				<path class="st2" d="M502.44,192.95H378.79c-4.57,0-8.27-3.7-8.27-8.27v-35.84c0-4.57,3.7-8.27,8.27-8.27h123.65
					c4.57,0,8.27,3.7,8.27,8.27v35.84C510.71,189.25,507.01,192.95,502.44,192.95z"/>
				<path class="st3" d="M502.44,193.46H378.79c-4.83,0-8.77-3.93-8.77-8.77v-35.84c0-4.83,3.93-8.77,8.77-8.77h123.65
					c4.83,0,8.77,3.93,8.77,8.77v35.84C511.21,189.52,507.27,193.46,502.44,193.46z M378.79,141.07c-4.28,0-7.77,3.48-7.77,7.77
					v35.84c0,4.28,3.48,7.77,7.77,7.77h123.65c4.28,0,7.77-3.48,7.77-7.77v-35.84c0-4.28-3.48-7.77-7.77-7.77H378.79z"/>
			</g>
			<g>
				<path class="st2" d="M502.44,249.01H378.79c-4.57,0-8.27-3.7-8.27-8.27V204.9c0-4.57,3.7-8.27,8.27-8.27h123.65
					c4.57,0,8.27,3.7,8.27,8.27v35.84C510.71,245.31,507.01,249.01,502.44,249.01z"/>
				<path class="st3" d="M502.44,249.51H378.79c-4.83,0-8.77-3.93-8.77-8.77V204.9c0-4.83,3.93-8.77,8.77-8.77h123.65
					c4.83,0,8.77,3.93,8.77,8.77v35.84C511.21,245.58,507.27,249.51,502.44,249.51z M378.79,197.13c-4.28,0-7.77,3.48-7.77,7.77
					v35.84c0,4.28,3.48,7.77,7.77,7.77h123.65c4.28,0,7.77-3.48,7.77-7.77V204.9c0-4.28-3.48-7.77-7.77-7.77H378.79z"/>
			</g>
			<g>
				<path class="st2" d="M502.44,305.07H378.79c-4.57,0-8.27-3.7-8.27-8.27v-35.84c0-4.57,3.7-8.27,8.27-8.27h123.65
					c4.57,0,8.27,3.7,8.27,8.27v35.84C510.71,301.37,507.01,305.07,502.44,305.07z"/>
				<path class="st3" d="M502.44,305.57H378.79c-4.83,0-8.77-3.93-8.77-8.77v-35.84c0-4.83,3.93-8.77,8.77-8.77h123.65
					c4.83,0,8.77,3.93,8.77,8.77v35.84C511.21,301.64,507.27,305.57,502.44,305.57z M378.79,253.19c-4.28,0-7.77,3.48-7.77,7.77
					v35.84c0,4.28,3.48,7.77,7.77,7.77h123.65c4.28,0,7.77-3.48,7.77-7.77v-35.84c0-4.28-3.48-7.77-7.77-7.77H378.79z"/>
			</g>
			<g>
				<path class="st2" d="M502.44,361.13H378.79c-4.57,0-8.27-3.7-8.27-8.27v-35.84c0-4.57,3.7-8.27,8.27-8.27h123.65
					c4.57,0,8.27,3.7,8.27,8.27v35.84C510.71,357.43,507.01,361.13,502.44,361.13z"/>
				<path class="st3" d="M502.44,361.63H378.79c-4.83,0-8.77-3.93-8.77-8.77v-35.85c0-4.83,3.93-8.77,8.77-8.77h123.65
					c4.83,0,8.77,3.93,8.77,8.77v35.85C511.21,357.7,507.27,361.63,502.44,361.63z M378.79,309.25c-4.28,0-7.77,3.48-7.77,7.77
					v35.85c0,4.28,3.48,7.77,7.77,7.77h123.65c4.28,0,7.77-3.48,7.77-7.77v-35.85c0-4.28-3.48-7.77-7.77-7.77H378.79z"/>
			</g>
			<g>
				<path class="st2" d="M502.44,417.19H378.79c-4.57,0-8.27-3.7-8.27-8.27v-35.84c0-4.57,3.7-8.27,8.27-8.27h123.65
					c4.57,0,8.27,3.7,8.27,8.27v35.84C510.71,413.49,507.01,417.19,502.44,417.19z"/>
				<path class="st3" d="M502.44,417.69H378.79c-4.83,0-8.77-3.93-8.77-8.77v-35.84c0-4.83,3.93-8.77,8.77-8.77h123.65
					c4.83,0,8.77,3.93,8.77,8.77v35.84C511.21,413.76,507.27,417.69,502.44,417.69z M378.79,365.31c-4.28,0-7.77,3.49-7.77,7.77
					v35.84c0,4.28,3.48,7.77,7.77,7.77h123.65c4.28,0,7.77-3.49,7.77-7.77v-35.84c0-4.28-3.48-7.77-7.77-7.77H378.79z"/>
			</g>
			<g>
				<path class="st2" d="M649.65,136.9H526c-4.57,0-8.27-3.7-8.27-8.27V92.78c0-4.57,3.7-8.27,8.27-8.27h123.65
					c4.57,0,8.27,3.7,8.27,8.27v35.84C657.92,133.19,654.22,136.9,649.65,136.9z"/>
				<path class="st3" d="M649.65,137.4H526c-4.83,0-8.77-3.93-8.77-8.77V92.78c0-4.83,3.93-8.77,8.77-8.77h123.65
					c4.83,0,8.77,3.93,8.77,8.77v35.84C658.42,133.46,654.49,137.4,649.65,137.4z M526,85.01c-4.28,0-7.77,3.48-7.77,7.77v35.84
					c0,4.28,3.48,7.77,7.77,7.77h123.65c4.28,0,7.77-3.48,7.77-7.77V92.78c0-4.28-3.49-7.77-7.77-7.77H526z"/>
			</g>
			<g>
				<path class="st2" d="M649.65,250.57H526c-4.57,0-8.27-3.7-8.27-8.27v-35.84c0-4.57,3.7-8.27,8.27-8.27h123.65
					c4.57,0,8.27,3.7,8.27,8.27v35.84C657.92,246.87,654.22,250.57,649.65,250.57z"/>
				<path class="st3" d="M649.65,251.07H526c-4.83,0-8.77-3.93-8.77-8.77v-35.84c0-4.83,3.93-8.77,8.77-8.77h123.65
					c4.83,0,8.77,3.93,8.77,8.77v35.84C658.42,247.13,654.49,251.07,649.65,251.07z M526,198.69c-4.28,0-7.77,3.48-7.77,7.77v35.84
					c0,4.28,3.48,7.77,7.77,7.77h123.65c4.28,0,7.77-3.48,7.77-7.77v-35.84c0-4.28-3.49-7.77-7.77-7.77H526z"/>
			</g>
			<g>
				<path class="st2" d="M649.65,306.11H526c-4.57,0-8.27-3.7-8.27-8.27V262c0-4.57,3.7-8.27,8.27-8.27h123.65
					c4.57,0,8.27,3.7,8.27,8.27v35.84C657.92,302.41,654.22,306.11,649.65,306.11z"/>
				<path class="st3" d="M649.65,306.61H526c-4.83,0-8.77-3.93-8.77-8.77V262c0-4.83,3.93-8.77,8.77-8.77h123.65
					c4.83,0,8.77,3.93,8.77,8.77v35.84C658.42,302.68,654.49,306.61,649.65,306.61z M526,254.23c-4.28,0-7.77,3.48-7.77,7.77v35.84
					c0,4.28,3.48,7.77,7.77,7.77h123.65c4.28,0,7.77-3.48,7.77-7.77V262c0-4.28-3.49-7.77-7.77-7.77H526z"/>
			</g>
			<g>
				<path class="st2" d="M649.65,361.65H526c-4.57,0-8.27-3.7-8.27-8.27v-35.84c0-4.57,3.7-8.27,8.27-8.27h123.65
					c4.57,0,8.27,3.7,8.27,8.27v35.84C657.92,357.95,654.22,361.65,649.65,361.65z"/>
				<path class="st3" d="M649.65,362.15H526c-4.83,0-8.77-3.93-8.77-8.77v-35.84c0-4.83,3.93-8.77,8.77-8.77h123.65
					c4.83,0,8.77,3.93,8.77,8.77v35.84C658.42,358.22,654.49,362.15,649.65,362.15z M526,309.77c-4.28,0-7.77,3.48-7.77,7.77v35.84
					c0,4.28,3.48,7.77,7.77,7.77h123.65c4.28,0,7.77-3.49,7.77-7.77v-35.84c0-4.28-3.49-7.77-7.77-7.77H526z"/>
			</g>
			<g>
				<path class="st2" d="M649.65,417.19H526c-4.57,0-8.27-3.7-8.27-8.27v-35.84c0-4.57,3.7-8.27,8.27-8.27h123.65
					c4.57,0,8.27,3.7,8.27,8.27v35.84C657.92,413.49,654.22,417.19,649.65,417.19z"/>
				<path class="st3" d="M649.65,417.69H526c-4.83,0-8.77-3.93-8.77-8.77v-35.84c0-4.83,3.93-8.77,8.77-8.77h123.65
					c4.83,0,8.77,3.93,8.77,8.77v35.84C658.42,413.76,654.49,417.69,649.65,417.69z M526,365.31c-4.28,0-7.77,3.49-7.77,7.77v35.84
					c0,4.28,3.48,7.77,7.77,7.77h123.65c4.28,0,7.77-3.49,7.77-7.77v-35.84c0-4.28-3.49-7.77-7.77-7.77H526z"/>
			</g>
			<g>
				<path class="st2" d="M208.02,472.39H84.36c-4.57,0-8.27-3.7-8.27-8.27v-35.84c0-4.57,3.7-8.27,8.27-8.27h123.65
					c4.57,0,8.27,3.7,8.27,8.27v35.84C216.28,468.69,212.58,472.39,208.02,472.39z"/>
				<path class="st3" d="M208.02,472.89H84.36c-4.83,0-8.77-3.93-8.77-8.77v-35.84c0-4.83,3.93-8.77,8.77-8.77h123.65
					c4.83,0,8.77,3.93,8.77,8.77v35.84C216.78,468.96,212.85,472.89,208.02,472.89z M84.36,420.51c-4.28,0-7.77,3.49-7.77,7.77
					v35.84c0,4.28,3.48,7.77,7.77,7.77h123.65c4.28,0,7.77-3.49,7.77-7.77v-35.84c0-4.28-3.48-7.77-7.77-7.77H84.36z"/>
			</g>
			<g>
				<path class="st2" d="M355.23,472.39H231.58c-4.57,0-8.27-3.7-8.27-8.27v-35.84c0-4.57,3.7-8.27,8.27-8.27h123.65
					c4.57,0,8.27,3.7,8.27,8.27v35.84C363.5,468.69,359.79,472.39,355.23,472.39z"/>
				<path class="st3" d="M355.23,472.89H231.58c-4.83,0-8.77-3.93-8.77-8.77v-35.84c0-4.83,3.93-8.77,8.77-8.77h123.65
					c4.83,0,8.77,3.93,8.77,8.77v35.84C364,468.96,360.06,472.89,355.23,472.89z M231.58,420.51c-4.28,0-7.77,3.49-7.77,7.77v35.84
					c0,4.28,3.48,7.77,7.77,7.77h123.65c4.28,0,7.77-3.49,7.77-7.77v-35.84c0-4.28-3.48-7.77-7.77-7.77H231.58z"/>
			</g>
			<g>
				<path class="st2" d="M502.44,472.39H378.79c-4.57,0-8.27-3.7-8.27-8.27v-35.84c0-4.57,3.7-8.27,8.27-8.27h123.65
					c4.57,0,8.27,3.7,8.27,8.27v35.84C510.71,468.69,507.01,472.39,502.44,472.39z"/>
				<path class="st3" d="M502.44,472.89H378.79c-4.83,0-8.77-3.93-8.77-8.77v-35.84c0-4.83,3.93-8.77,8.77-8.77h123.65
					c4.83,0,8.77,3.93,8.77,8.77v35.84C511.21,468.96,507.27,472.89,502.44,472.89z M378.79,420.51c-4.28,0-7.77,3.49-7.77,7.77
					v35.84c0,4.28,3.48,7.77,7.77,7.77h123.65c4.28,0,7.77-3.49,7.77-7.77v-35.84c0-4.28-3.48-7.77-7.77-7.77H378.79z"/>
			</g>
			<g>
				<path class="st2" d="M795.77,136.9H672.12c-4.57,0-8.27-3.7-8.27-8.27V92.78c0-4.57,3.7-8.27,8.27-8.27h123.65
					c4.57,0,8.27,3.7,8.27,8.27v35.84C804.04,133.19,800.33,136.9,795.77,136.9z"/>
				<path class="st3" d="M795.77,137.4H672.12c-4.83,0-8.77-3.93-8.77-8.77V92.78c0-4.83,3.93-8.77,8.77-8.77h123.65
					c4.83,0,8.77,3.93,8.77,8.77v35.84C804.54,133.46,800.6,137.4,795.77,137.4z M672.12,85.01c-4.28,0-7.77,3.48-7.77,7.77v35.84
					c0,4.28,3.49,7.77,7.77,7.77h123.65c4.28,0,7.77-3.48,7.77-7.77V92.78c0-4.28-3.49-7.77-7.77-7.77H672.12z"/>
			</g>
			<g>
				<path class="st2" d="M795.77,192.95H672.12c-4.57,0-8.27-3.7-8.27-8.27v-35.84c0-4.57,3.7-8.27,8.27-8.27h123.65
					c4.57,0,8.27,3.7,8.27,8.27v35.84C804.04,189.25,800.33,192.95,795.77,192.95z"/>
				<path class="st3" d="M795.77,193.46H672.12c-4.83,0-8.77-3.93-8.77-8.77v-35.84c0-4.83,3.93-8.77,8.77-8.77h123.65
					c4.83,0,8.77,3.93,8.77,8.77v35.84C804.54,189.52,800.6,193.46,795.77,193.46z M672.12,141.07c-4.28,0-7.77,3.48-7.77,7.77
					v35.84c0,4.28,3.49,7.77,7.77,7.77h123.65c4.28,0,7.77-3.48,7.77-7.77v-35.84c0-4.28-3.49-7.77-7.77-7.77H672.12z"/>
			</g>
			<g>
				<path class="st2" d="M795.77,249.01H672.12c-4.57,0-8.27-3.7-8.27-8.27V204.9c0-4.57,3.7-8.27,8.27-8.27h123.65
					c4.57,0,8.27,3.7,8.27,8.27v35.84C804.04,245.31,800.33,249.01,795.77,249.01z"/>
				<path class="st3" d="M795.77,249.51H672.12c-4.83,0-8.77-3.93-8.77-8.77V204.9c0-4.83,3.93-8.77,8.77-8.77h123.65
					c4.83,0,8.77,3.93,8.77,8.77v35.84C804.54,245.58,800.6,249.51,795.77,249.51z M672.12,197.13c-4.28,0-7.77,3.48-7.77,7.77
					v35.84c0,4.28,3.49,7.77,7.77,7.77h123.65c4.28,0,7.77-3.48,7.77-7.77V204.9c0-4.28-3.49-7.77-7.77-7.77H672.12z"/>
			</g>
			<g>
				<path class="st2" d="M795.77,305.07H672.12c-4.57,0-8.27-3.7-8.27-8.27v-35.84c0-4.57,3.7-8.27,8.27-8.27h123.65
					c4.57,0,8.27,3.7,8.27,8.27v35.84C804.04,301.37,800.33,305.07,795.77,305.07z"/>
				<path class="st3" d="M795.77,305.57H672.12c-4.83,0-8.77-3.93-8.77-8.77v-35.84c0-4.83,3.93-8.77,8.77-8.77h123.65
					c4.83,0,8.77,3.93,8.77,8.77v35.84C804.54,301.64,800.6,305.57,795.77,305.57z M672.12,253.19c-4.28,0-7.77,3.48-7.77,7.77
					v35.84c0,4.28,3.49,7.77,7.77,7.77h123.65c4.28,0,7.77-3.48,7.77-7.77v-35.84c0-4.28-3.49-7.77-7.77-7.77H672.12z"/>
			</g>
			<g>
				<path class="st2" d="M795.77,361.13H672.12c-4.57,0-8.27-3.7-8.27-8.27v-35.84c0-4.57,3.7-8.27,8.27-8.27h123.65
					c4.57,0,8.27,3.7,8.27,8.27v35.84C804.04,357.43,800.33,361.13,795.77,361.13z"/>
				<path class="st3" d="M795.77,361.63H672.12c-4.83,0-8.77-3.93-8.77-8.77v-35.85c0-4.83,3.93-8.77,8.77-8.77h123.65
					c4.83,0,8.77,3.93,8.77,8.77v35.85C804.54,357.7,800.6,361.63,795.77,361.63z M672.12,309.25c-4.28,0-7.77,3.48-7.77,7.77v35.85
					c0,4.28,3.49,7.77,7.77,7.77h123.65c4.28,0,7.77-3.48,7.77-7.77v-35.85c0-4.28-3.49-7.77-7.77-7.77H672.12z"/>
			</g>
			<g>
				<path class="st2" d="M795.77,417.19H672.12c-4.57,0-8.27-3.7-8.27-8.27v-35.84c0-4.57,3.7-8.27,8.27-8.27h123.65
					c4.57,0,8.27,3.7,8.27,8.27v35.84C804.04,413.49,800.33,417.19,795.77,417.19z"/>
				<path class="st3" d="M795.77,417.69H672.12c-4.83,0-8.77-3.93-8.77-8.77v-35.84c0-4.83,3.93-8.77,8.77-8.77h123.65
					c4.83,0,8.77,3.93,8.77,8.77v35.84C804.54,413.76,800.6,417.69,795.77,417.69z M672.12,365.31c-4.28,0-7.77,3.49-7.77,7.77
					v35.84c0,4.28,3.49,7.77,7.77,7.77h123.65c4.28,0,7.77-3.49,7.77-7.77v-35.84c0-4.28-3.49-7.77-7.77-7.77H672.12z"/>
			</g>
			<g>
				<path class="st2" d="M795.77,472.39H672.12c-4.57,0-8.27-3.7-8.27-8.27v-35.84c0-4.57,3.7-8.27,8.27-8.27h123.65
					c4.57,0,8.27,3.7,8.27,8.27v35.84C804.04,468.69,800.33,472.39,795.77,472.39z"/>
				<path class="st3" d="M795.77,472.89H672.12c-4.83,0-8.77-3.93-8.77-8.77v-35.84c0-4.83,3.93-8.77,8.77-8.77h123.65
					c4.83,0,8.77,3.93,8.77,8.77v35.84C804.54,468.96,800.6,472.89,795.77,472.89z M672.12,420.51c-4.28,0-7.77,3.49-7.77,7.77
					v35.84c0,4.28,3.49,7.77,7.77,7.77h123.65c4.28,0,7.77-3.49,7.77-7.77v-35.84c0-4.28-3.49-7.77-7.77-7.77H672.12z"/>
			</g>
			<g>
				<path class="st2" d="M940.17,136.9H816.52c-4.57,0-8.27-3.7-8.27-8.27V92.78c0-4.57,3.7-8.27,8.27-8.27h123.65
					c4.57,0,8.27,3.7,8.27,8.27v35.84C948.44,133.19,944.73,136.9,940.17,136.9z"/>
				<path class="st3" d="M940.17,137.4H816.52c-4.83,0-8.77-3.93-8.77-8.77V92.78c0-4.83,3.93-8.77,8.77-8.77h123.65
					c4.83,0,8.77,3.93,8.77,8.77v35.84C948.94,133.46,945,137.4,940.17,137.4z M816.52,85.01c-4.28,0-7.77,3.48-7.77,7.77v35.84
					c0,4.28,3.49,7.77,7.77,7.77h123.65c4.28,0,7.77-3.48,7.77-7.77V92.78c0-4.28-3.49-7.77-7.77-7.77H816.52z"/>
			</g>
			<g>
				<path class="st2" d="M940.17,192.95H816.52c-4.57,0-8.27-3.7-8.27-8.27v-35.84c0-4.57,3.7-8.27,8.27-8.27h123.65
					c4.57,0,8.27,3.7,8.27,8.27v35.84C948.44,189.25,944.73,192.95,940.17,192.95z"/>
				<path class="st3" d="M940.17,193.46H816.52c-4.83,0-8.77-3.93-8.77-8.77v-35.84c0-4.83,3.93-8.77,8.77-8.77h123.65
					c4.83,0,8.77,3.93,8.77,8.77v35.84C948.94,189.52,945,193.46,940.17,193.46z M816.52,141.07c-4.28,0-7.77,3.48-7.77,7.77v35.84
					c0,4.28,3.49,7.77,7.77,7.77h123.65c4.28,0,7.77-3.48,7.77-7.77v-35.84c0-4.28-3.49-7.77-7.77-7.77H816.52z"/>
			</g>
			<g>
				<path class="st2" d="M940.17,249.01H816.52c-4.57,0-8.27-3.7-8.27-8.27V204.9c0-4.57,3.7-8.27,8.27-8.27h123.65
					c4.57,0,8.27,3.7,8.27,8.27v35.84C948.44,245.31,944.73,249.01,940.17,249.01z"/>
				<path class="st3" d="M940.17,249.51H816.52c-4.83,0-8.77-3.93-8.77-8.77V204.9c0-4.83,3.93-8.77,8.77-8.77h123.65
					c4.83,0,8.77,3.93,8.77,8.77v35.84C948.94,245.58,945,249.51,940.17,249.51z M816.52,197.13c-4.28,0-7.77,3.48-7.77,7.77v35.84
					c0,4.28,3.49,7.77,7.77,7.77h123.65c4.28,0,7.77-3.48,7.77-7.77V204.9c0-4.28-3.49-7.77-7.77-7.77H816.52z"/>
			</g>
			<g>
				<path class="st2" d="M940.17,305.07H816.52c-4.57,0-8.27-3.7-8.27-8.27v-35.84c0-4.57,3.7-8.27,8.27-8.27h123.65
					c4.57,0,8.27,3.7,8.27,8.27v35.84C948.44,301.37,944.73,305.07,940.17,305.07z"/>
				<path class="st3" d="M940.17,305.57H816.52c-4.83,0-8.77-3.93-8.77-8.77v-35.84c0-4.83,3.93-8.77,8.77-8.77h123.65
					c4.83,0,8.77,3.93,8.77,8.77v35.84C948.94,301.64,945,305.57,940.17,305.57z M816.52,253.19c-4.28,0-7.77,3.48-7.77,7.77v35.84
					c0,4.28,3.49,7.77,7.77,7.77h123.65c4.28,0,7.77-3.48,7.77-7.77v-35.84c0-4.28-3.49-7.77-7.77-7.77H816.52z"/>
			</g>
			<g>
				<path class="st2" d="M940.17,361.13H816.52c-4.57,0-8.27-3.7-8.27-8.27v-35.84c0-4.57,3.7-8.27,8.27-8.27h123.65
					c4.57,0,8.27,3.7,8.27,8.27v35.84C948.44,357.43,944.73,361.13,940.17,361.13z"/>
				<path class="st3" d="M940.17,361.63H816.52c-4.83,0-8.77-3.93-8.77-8.77v-35.85c0-4.83,3.93-8.77,8.77-8.77h123.65
					c4.83,0,8.77,3.93,8.77,8.77v35.85C948.94,357.7,945,361.63,940.17,361.63z M816.52,309.25c-4.28,0-7.77,3.48-7.77,7.77v35.85
					c0,4.28,3.49,7.77,7.77,7.77h123.65c4.28,0,7.77-3.48,7.77-7.77v-35.85c0-4.28-3.49-7.77-7.77-7.77H816.52z"/>
			</g>
			<g>
				<path class="st2" d="M940.17,417.19H816.52c-4.57,0-8.27-3.7-8.27-8.27v-35.84c0-4.57,3.7-8.27,8.27-8.27h123.65
					c4.57,0,8.27,3.7,8.27,8.27v35.84C948.44,413.49,944.73,417.19,940.17,417.19z"/>
				<path class="st3" d="M940.17,417.69H816.52c-4.83,0-8.77-3.93-8.77-8.77v-35.84c0-4.83,3.93-8.77,8.77-8.77h123.65
					c4.83,0,8.77,3.93,8.77,8.77v35.84C948.94,413.76,945,417.69,940.17,417.69z M816.52,365.31c-4.28,0-7.77,3.49-7.77,7.77v35.84
					c0,4.28,3.49,7.77,7.77,7.77h123.65c4.28,0,7.77-3.49,7.77-7.77v-35.84c0-4.28-3.49-7.77-7.77-7.77H816.52z"/>
			</g>
			<g>
				<path class="st2" d="M940.17,472.39H816.52c-4.57,0-8.27-3.7-8.27-8.27v-35.84c0-4.57,3.7-8.27,8.27-8.27h123.65
					c4.57,0,8.27,3.7,8.27,8.27v35.84C948.44,468.69,944.73,472.39,940.17,472.39z"/>
				<path class="st3" d="M940.17,472.89H816.52c-4.83,0-8.77-3.93-8.77-8.77v-35.84c0-4.83,3.93-8.77,8.77-8.77h123.65
					c4.83,0,8.77,3.93,8.77,8.77v35.84C948.94,468.96,945,472.89,940.17,472.89z M816.52,420.51c-4.28,0-7.77,3.49-7.77,7.77v35.84
					c0,4.28,3.49,7.77,7.77,7.77h123.65c4.28,0,7.77-3.49,7.77-7.77v-35.84c0-4.28-3.49-7.77-7.77-7.77H816.52z"/>
			</g>
			<g>
				<path class="st2" d="M649.65,472.91H526c-4.57,0-8.27-3.7-8.27-8.27V428.8c0-4.57,3.7-8.27,8.27-8.27h123.65
					c4.57,0,8.27,3.7,8.27,8.27v35.84C657.92,469.21,654.22,472.91,649.65,472.91z"/>
				<path class="st3" d="M649.65,473.41H526c-4.83,0-8.77-3.93-8.77-8.77V428.8c0-4.83,3.93-8.77,8.77-8.77h123.65
					c4.83,0,8.77,3.93,8.77,8.77v35.84C658.42,469.48,654.49,473.41,649.65,473.41z M526,421.03c-4.28,0-7.77,3.49-7.77,7.77v35.84
					c0,4.28,3.48,7.77,7.77,7.77h123.65c4.28,0,7.77-3.49,7.77-7.77V428.8c0-4.28-3.49-7.77-7.77-7.77H526z"/>
			</g>
			<g>
				<path class="st4" d="M143.87,67.81l4.22-17.12h5.52l4.25,17.12h-2.8l-0.92-3.67h-6.57l-0.92,3.67H143.87z M150.24,53.01
					l-2.12,8.67h5.47l-2.1-8.67H150.24z"/>
			</g>
			<g>
				<path class="st4" d="M54.49,105.75v16.5h-2.77V108.9l-3.87,2.5l-1.27-2.07l5.37-3.57H54.49z"/>
			</g>
			<g>
				<path class="st4" d="M56.66,175.87H46.04v-2.37l4.07-4.2c1.23-1.27,2.1-2.26,2.6-2.97c0.5-0.72,0.75-1.5,0.75-2.36
					c0-0.86-0.24-1.47-0.73-1.84c-0.48-0.37-1.27-0.55-2.37-0.55c-1.03,0-2.17,0.12-3.42,0.35l-0.62,0.1l-0.18-2.2
					c1.62-0.48,3.29-0.72,5.02-0.72c3.45,0,5.17,1.53,5.17,4.6c0,1.2-0.26,2.24-0.79,3.12s-1.46,1.95-2.81,3.2l-3.52,3.42h7.45
					V175.87z"/>
			</g>
			<g>
				<path class="st4" d="M46.01,213.51c1.55-0.53,3.25-0.8,5.1-0.8s3.19,0.35,4.04,1.06c0.84,0.71,1.26,1.83,1.26,3.36
					c0,0.67-0.13,1.27-0.39,1.8s-0.52,0.92-0.79,1.16c-0.27,0.24-0.6,0.5-1,0.76c0.88,0.42,1.52,0.87,1.91,1.36
					c0.39,0.49,0.59,1.29,0.59,2.39c0,1.75-0.44,3.05-1.31,3.89c-0.88,0.84-2.27,1.26-4.19,1.26c-0.75,0-1.57-0.06-2.47-0.19
					s-1.62-0.25-2.15-0.39l-0.77-0.2l0.17-2.15c1.83,0.33,3.45,0.5,4.85,0.5c2-0.02,3-0.9,3-2.65c0-0.8-0.26-1.41-0.77-1.82
					c-0.52-0.42-1.2-0.63-2.05-0.65h-3.32v-2.32h3.32c0.62,0,1.19-0.25,1.71-0.76c0.52-0.51,0.79-1.12,0.79-1.85
					c0-0.72-0.23-1.26-0.69-1.61c-0.46-0.35-1.09-0.52-1.89-0.52c-1.32,0-2.67,0.12-4.07,0.35l-0.65,0.12L46.01,213.51z"/>
			</g>
			<g>
				<path class="st4" d="M52.79,283.1v-2.95h-7.42v-2.12l4.35-11.42h3.07l-4.6,11.12h4.6v-4.85h2.8v4.85h1.8v2.42h-1.8v2.95H52.79z"
					/>
			</g>
			<g>
				<path class="st4" d="M56.46,320.22v2.45h-7.65l-0.43,4.35c1.13-0.52,2.25-0.78,3.35-0.78c3.53,0,5.3,1.65,5.3,4.95
					c0,1.87-0.49,3.3-1.46,4.3s-2.35,1.5-4.14,1.5c-0.75,0-1.6-0.07-2.55-0.21s-1.71-0.28-2.27-0.41l-0.85-0.22l0.3-2.1
					c1.97,0.33,3.65,0.5,5.05,0.5c0.97,0,1.72-0.27,2.25-0.8c0.53-0.53,0.8-1.29,0.8-2.28c0-0.98-0.23-1.69-0.7-2.12
					c-0.47-0.43-1.08-0.65-1.82-0.65c-1.35,0-2.45,0.17-3.3,0.5l-0.45,0.18L46.14,329l0.45-8.77H56.46z"/>
			</g>
			<g>
				<path class="st4" d="M56.61,376.34c-1.62-0.23-3.08-0.35-4.4-0.35s-2.3,0.41-2.95,1.22s-0.98,1.96-1,3.42l0.58-0.2
					c1.2-0.38,2.21-0.57,3.02-0.57c3.73,0,5.6,1.75,5.6,5.25c0,1.8-0.52,3.17-1.55,4.1c-1.03,0.93-2.54,1.4-4.52,1.4
					c-1.98,0-3.48-0.74-4.49-2.21c-1.01-1.47-1.51-3.58-1.51-6.31c0-5.68,2.23-8.52,6.7-8.52c1.25,0,2.6,0.15,4.05,0.45l0.72,0.15
					L56.61,376.34z M48.71,382.86l-0.48,0.17c0.03,3.43,1.13,5.15,3.3,5.15c0.98,0,1.74-0.27,2.26-0.8s0.79-1.28,0.79-2.22
					c0-0.95-0.26-1.66-0.77-2.14c-0.52-0.47-1.24-0.71-2.16-0.71S49.74,382.5,48.71,382.86z"/>
			</g>
			<g>
				<path class="st4" d="M46.19,429.96v-2.5h10.4v3.3l-6.07,13.47l-2.6-0.75l5.87-12.77v-0.75H46.19z"/>
			</g>
			<g>
				<path class="st4" d="M291.31,50.69h6.5c1.75,0,3.06,0.35,3.92,1.06c0.87,0.71,1.3,1.84,1.3,3.39c0,1.02-0.16,1.82-0.49,2.4
					s-0.84,1.07-1.54,1.45c1.63,0.63,2.45,1.96,2.45,3.97c0,3.23-1.82,4.85-5.45,4.85h-6.7V50.69z M297.66,53.09h-3.57v4.9h3.67
					c1.63,0,2.45-0.84,2.45-2.52C300.21,53.88,299.36,53.09,297.66,53.09z M297.81,60.33h-3.72v5.07h3.77c0.92,0,1.6-0.19,2.06-0.57
					c0.46-0.38,0.69-1.04,0.69-1.97s-0.27-1.59-0.8-1.96C299.28,60.52,298.61,60.33,297.81,60.33z"/>
			</g>
			<g>
				<path class="st4" d="M444.04,68.08c-2.5,0-4.19-0.69-5.09-2.07c-0.89-1.38-1.34-3.66-1.34-6.82c0-3.17,0.45-5.42,1.35-6.76
					s2.59-2.01,5.07-2.01c1.48,0,3.12,0.21,4.9,0.62l-0.1,2.25c-1.5-0.27-3-0.4-4.5-0.4c-1.5,0-2.52,0.45-3.05,1.34
					c-0.53,0.89-0.8,2.57-0.8,5.02c0,2.46,0.26,4.13,0.77,5.02c0.52,0.89,1.52,1.34,3.02,1.34s3.02-0.12,4.55-0.37l0.08,2.3
					C447.2,67.9,445.57,68.08,444.04,68.08z"/>
			</g>
			<g>
				<path class="st4" d="M589.13,67.81h-5.92V50.69h5.92c2.63,0,4.43,0.67,5.4,2c0.97,1.33,1.45,3.42,1.45,6.27
					c0,1.45-0.1,2.68-0.29,3.69s-0.53,1.92-1.01,2.74C593.73,67,591.88,67.81,589.13,67.81z M593.11,58.96
					c0-2.07-0.26-3.56-0.77-4.47c-0.52-0.92-1.58-1.38-3.2-1.38h-3.15v12.25h3.15c1.65,0,2.75-0.61,3.3-1.82
					c0.27-0.62,0.45-1.27,0.54-1.97S593.11,59.99,593.11,58.96z"/>
			</g>
			<g>
				<path class="st4" d="M730.44,67.81V50.69h10.8v2.42h-8.02v4.85h6.52v2.4h-6.52v5h8.02v2.45H730.44z"/>
			</g>
			<g>
				<path class="st4" d="M876.87,67.81V50.69h10.62v2.42h-7.85v5.77h6.52v2.42h-6.52v6.5H876.87z"/>
			</g>
		</g>
		<g>
			<g>
				<path class="st5" d="M802.98,91.34l-12.65-1.98c-2.19-0.34-3.69-2.4-3.35-4.59l0.05-0.33c0.34-2.19,2.4-3.69,4.59-3.35
					l12.65,1.98c2.19,0.34,3.69,2.4,3.35,4.59l-0.05,0.33C807.23,90.18,805.17,91.68,802.98,91.34z"/>
				<path class="st5" d="M803.49,97.54l-12.76-1.1c-2.21-0.19-3.85-2.14-3.66-4.35l0.03-0.34c0.19-2.21,2.14-3.85,4.35-3.66
					l12.76,1.1c2.21,0.19,3.85,2.14,3.66,4.35l-0.03,0.34C807.65,96.09,805.7,97.73,803.49,97.54z"/>
				<path class="st5" d="M804.83,103.07h-12.8c-2.22,0-4.02-1.8-4.02-4.02v-0.34c0-2.22,1.8-4.02,4.02-4.02h12.8
					c2.22,0,4.02,1.8,4.02,4.02v0.34C808.85,101.27,807.05,103.07,804.83,103.07z"/>
				<path class="st5" d="M805.73,109.57h-12.8c-2.22,0-4.02-1.8-4.02-4.02v-0.34c0-2.22,1.8-4.02,4.02-4.02h12.8
					c2.22,0,4.02,1.8,4.02,4.02v0.34C809.75,107.77,807.95,109.57,805.73,109.57z"/>
			</g>
			<g>
				<polygon class="st4" points="831.27,455.05 841.8,479.27 777.8,507.11 773.44,497.07 814.5,462.34 				"/>
				<g>
					<circle class="st5" cx="803.76" cy="359.83" r="11.24"/>
					<circle class="st3" cx="803.76" cy="359.83" r="3.86"/>
				</g>
				<g>
					<circle class="st5" cx="821.89" cy="450.35" r="8.86"/>
					<circle class="st3" cx="821.89" cy="450.35" r="3.04"/>
				</g>
				<polygon class="st4" points="783.25,246.23 800.34,244.44 811.9,355.1 794.32,352.08 				"/>
				<polygon class="st4" points="828.3,444.9 813.96,447.53 799.54,368.97 813.39,363.69 				"/>
				<g>
					<circle class="st5" cx="790.87" cy="236.46" r="15.68"/>
					<circle class="st3" cx="790.87" cy="236.46" r="5.38"/>
				</g>
			</g>
			<g>
				
					<rect x="720.9" y="99.31" transform="matrix(-0.5977 -0.8017 0.8017 -0.5977 1045.201 814.0187)" class="st4" width="11.89" height="90.91"/>
				<g>
					<circle class="st5" cx="768.11" cy="115.59" r="12.49"/>
					<circle class="st3" cx="768.11" cy="115.59" r="4.29"/>
				</g>
				
					<rect x="645.78" y="118.13" transform="matrix(-0.3911 0.9204 -0.9204 -0.3911 1049.6816 -383.679)" class="st4" width="11.98" height="74.57"/>
				<g>
					<circle class="st5" cx="690.26" cy="171.4" r="11.24"/>
					<circle class="st3" cx="690.26" cy="171.4" r="3.86"/>
				</g>
			</g>
			<g>
				<path class="st5" d="M817.22,173.08l-30.9,0c-3.26,0-5.9-2.64-5.9-5.9v-0.49c0-3.26,2.64-5.9,5.9-5.9l30.9,0
					c3.26,0,5.9,2.64,5.9,5.9v0.49C823.13,170.44,820.48,173.08,817.22,173.08z"/>
				<path class="st5" d="M817.1,182.32l-28.48,0.8c-2.88,0.08-5.29-2.19-5.37-5.08l-0.01-0.44c-0.08-2.88,2.19-5.29,5.08-5.37
					l28.48-0.8c2.88-0.08,5.29,2.19,5.37,5.08l0.01,0.44C822.26,179.84,819.98,182.24,817.1,182.32z"/>
				<path class="st5" d="M818.3,191.25l-24.51,1.9c-2.88,0.22-5.39-1.93-5.61-4.8l-0.03-0.44c-0.22-2.88,1.93-5.39,4.8-5.61
					l24.51-1.9c2.88-0.22,5.39,1.93,5.61,4.8l0.03,0.44C823.32,188.51,821.17,191.03,818.3,191.25z"/>
				<path class="st5" d="M818.63,201.27l-19.92,1.55c-2.88,0.22-5.39-1.93-5.61-4.8l-0.03-0.44c-0.22-2.88,1.93-5.39,4.8-5.61
					l19.92-1.55c2.88-0.22,5.39,1.93,5.61,4.8l0.03,0.44C823.66,198.53,821.5,201.04,818.63,201.27z"/>
				<path class="st5" d="M818.31,210.77l-15.46,1.2c-2.88,0.22-5.39-1.93-5.61-4.8l-0.03-0.44c-0.22-2.88,1.93-5.39,4.8-5.61
					l15.46-1.2c2.88-0.22,5.39,1.93,5.61,4.8l0.03,0.44C823.33,208.03,821.18,210.54,818.31,210.77z"/>
				<path class="st5" d="M816.93,219.5l-7.05,0.55c-2.88,0.22-5.39-1.93-5.61-4.8l-0.03-0.44c-0.22-2.88,1.93-5.39,4.8-5.61
					l7.05-0.55c2.88-0.22,5.39,1.93,5.61,4.8l0.03,0.44C821.96,216.77,819.81,219.28,816.93,219.5z"/>
			</g>
			<path class="st6" d="M839.36,248.02l-43.11,3.35c-6.48,0.5-12.14-4.34-12.64-10.82l-1.12-14.48c-0.5-6.48,4.34-12.14,10.82-12.64
				l43.11-3.35c6.48-0.5,12.14,4.34,12.64,10.82l1.12,14.48C850.69,241.86,845.84,247.52,839.36,248.02z"/>
			<path class="st6" d="M826.61,163.96h-54.56c-4.24,0-7.68-3.44-7.68-7.68v-43.59c0-4.24,3.44-7.68,7.68-7.68h54.56
				c4.24,0,7.68,3.44,7.68,7.68v43.59C834.29,160.52,830.85,163.96,826.61,163.96z"/>
			<path class="st6" d="M811.82,88.66l-31.16-4.88c-4.19-0.66-7.05-4.59-6.4-8.78l10.31-65.77c0.66-4.19,4.59-7.05,8.78-6.4
				l31.16,4.88c4.19,0.66,7.05,4.59,6.4,8.78l-10.31,65.77C819.94,86.45,816.01,89.31,811.82,88.66z"/>
			<g>
				<polygon class="st4" points="956.36,394.28 980.32,405.38 950.97,468.71 941.04,464.1 948.67,410.86 				"/>
				<g>
					<circle class="st5" cx="867.3" cy="354.65" r="11.24"/>
					<circle class="st3" cx="867.3" cy="354.65" r="3.86"/>
				</g>
				<g>
					<circle class="st5" cx="948.09" cy="399.46" r="8.86"/>
					<circle class="st3" cx="948.09" cy="399.46" r="3.04"/>
				</g>
				<polygon class="st4" points="829.29,245.65 845.89,241.21 874.61,348.71 856.76,348.47 				"/>
				<polygon class="st4" points="947.98,391.05 940.86,403.77 871.16,364.77 875.92,350.73 				"/>
				<g>
					<circle class="st5" cx="835.29" cy="234.81" r="15.68"/>
					<circle class="st3" cx="835.29" cy="234.81" r="5.38"/>
				</g>
			</g>
			<g>
				
					<rect x="804.11" y="120.86" transform="matrix(0.9209 0.3899 -0.3899 0.9209 128.9514 -302.6693)" class="st4" width="11.89" height="90.91"/>
				<g>
					<circle class="st5" cx="827.9" cy="117.36" r="12.49"/>
					<circle class="st3" cx="827.9" cy="117.36" r="4.29"/>
				</g>
				
					<rect x="740.83" y="163.54" transform="matrix(0.2066 -0.9784 0.9784 0.2066 396.0372 890.0453)" class="st4" width="11.98" height="74.57"/>
				<g>
					<circle class="st5" cx="790.66" cy="211.13" r="11.24"/>
					<circle class="st3" cx="790.66" cy="211.13" r="3.86"/>
				</g>
			</g>
			<g>
				
					<rect x="687.01" y="175.88" transform="matrix(-0.7071 -0.7071 0.7071 -0.7071 1069.3146 800.8209)" class="st4" width="27" height="6.14"/>
				<g>
					<path class="st2" d="M698.92,195.97l-128.72,9.99c-3.1,0.24-5.81-2.08-6.05-5.18l-3.09-39.79c-0.24-3.1,2.08-5.81,5.18-6.05
						l128.72-9.99c3.1-0.24,5.81,2.08,6.05,5.18l3.09,39.79C704.34,193.02,702.02,195.73,698.92,195.97z"/>
					<path class="st3" d="M569.75,206.98c-1.58,0-3.09-0.56-4.3-1.59c-1.35-1.15-2.16-2.76-2.3-4.53l-3.09-39.79
						c-0.28-3.65,2.45-6.84,6.1-7.13l128.72-9.99c1.76-0.13,3.48,0.42,4.83,1.57c1.35,1.15,2.16,2.76,2.3,4.53l3.09,39.79
						c0.28,3.65-2.45,6.84-6.1,7.13l-128.72,9.99C570.1,206.97,569.92,206.98,569.75,206.98z M695.4,145.93
						c-0.12,0-0.24,0-0.37,0.01l-128.72,9.99c-2.55,0.2-4.46,2.43-4.26,4.98l3.09,39.79c0.1,1.23,0.67,2.36,1.61,3.16
						s2.14,1.2,3.37,1.1l128.72-9.99c2.55-0.2,4.46-2.43,4.26-4.98l-3.09-39.79c-0.1-1.23-0.67-2.36-1.61-3.16
						C697.56,146.32,696.5,145.93,695.4,145.93z"/>
				</g>
			</g>
			<g>
				
					<rect x="594.23" y="152.66" transform="matrix(-0.4795 0.8776 -0.8776 -0.4795 1035.7773 -302.9199)" class="st4" width="27" height="6.14"/>
				
					<rect x="612.83" y="153.5" transform="matrix(0.3976 0.9176 -0.9176 0.3976 520.9786 -480.3732)" class="st4" width="27" height="6.14"/>
				<g>
					<circle class="st5" cx="617.67" cy="142.05" r="9.31"/>
					<circle class="st3" cx="617.67" cy="142.05" r="3.19"/>
				</g>
			</g>
			<g>
				
					<rect x="679.92" y="189.89" transform="matrix(-0.9978 -0.0666 0.0666 -0.9978 1372.4501 431.6795)" class="st4" width="27" height="6.14"/>
				<g>
					<circle class="st5" cx="711.69" cy="193.16" r="9.31"/>
					<circle class="st3" cx="711.69" cy="193.16" r="3.19"/>
				</g>
			</g>
		</g>
	</g>
</g>
<g id="Capa_4">
</g>
<g id="Capa_3" class="st25">
</g>
<g id="Capa_2" class="st59">
</g>
</svg>
